<?xml version="1.0" encoding="utf-8"?>
<!-- Generator: Adobe Illustrator 21.1.0, SVG Export Plug-In . SVG Version: 6.00 Build 0)  -->
<svg version="1.1" id="Ebene_1" xmlns="http://www.w3.org/2000/svg" xmlns:xlink="http://www.w3.org/1999/xlink" x="0px" y="0px"
	 viewBox="0 0 450.4 79" style="enable-background:new 0 0 450.4 79;" xml:space="preserve">
<style type="text/css">
	.st0{fill:#FFFFFF;}
</style>
<title>Element 2</title>
<g id="Ebene_2">
	<g id="Ebene_1-2">
		<path class="st0" d="M55.1,11.5h30.5c18.5,0,27.8,8.3,27.8,25v32.8l-1.1,1.1h-10.5l-1.1-1.1V53.8H66.8v15.6l-1.1,1.1H55.1L54,69.3
			V12.7L55.1,11.5z M66.8,23.8V41h33.8c0-10.9-3.5-16.6-10.5-17.1L66.8,23.8z"/>
		<path class="st0" d="M131.8,32.7h20.5l0.7,0.7v6.6l-0.7,0.7h-21.2c-4.1,0-6.6,2.3-7.6,6.9h28.9l0.7,0.7v5.9
			c0,4.2-3.5,8.7-10.4,13.5c-3.2,1.8-6.8,2.7-10.4,2.7h-16l-0.7-0.7v-6.2l0.7-0.7h12.2c8.7,0,14.2-2.7,16.4-8h-28.6l-0.7-0.7v-5.2
			c0-7.3,4.5-12.6,13.5-15.9L131.8,32.7z"/>
		<path class="st0" d="M172.7,32.8h19l0.7,0.5v6.9l-0.7,0.8h-18.3c-6.8,0-10.2,3.8-10.2,11.3v0.2c0,6.4,3,9.6,9.1,9.6h19.3l0.7,0.7
			v7l-0.7,0.7h-15.8c-14.1,0-21.2-6.5-21.2-19.4v-0.2C154.8,38.8,160.8,32.8,172.7,32.8z"/>
		<path class="st0" d="M195,11.5h58.3l1.1,1.1v10l-1.1,1.2h-45.5v10.9h15l1.1,1.1v10l-1.1,1.1h-15v10.8h20.5c3.5,0,7.7-2.2,12.8-6.7
			h12.2l1.1,1.1v2.3c-8.2,10.7-16.2,16.1-23.9,16.1h-34.4l-1.1-1.1L195,11.5z"/>
		<path class="st0" d="M296.4,19.9V11h9.8c15.7,0,23.8,8,24.4,23.9v34.4l-1.1,1.1h-10.5l-1.1-1.1V38.2c0-8.6-4.6-13-13.9-13.3v24.3
			l-1.1,1.1h-10.5l-1.1-1.1V27.1c-0.5-2.2-3.7-3.3-9.5-3.3H270v45.5l-1.1,1.1h-10.6l-1.1-1.1V12.1l1.1-1.1h25.5
			C292.2,11.4,296.4,14.3,296.4,19.9z"/>
		<path class="st0" d="M334.5,11h10l1.1,1.1v31.2c0,9.6,5.8,14.5,17.4,14.5c10.5,0,16.2-4.1,17-12.3V12.1l1.2-1.1h10.5l1.1,1.1V46
			c0,16.3-9.2,24.4-27.8,24.4h-3.9c-18.5,0-27.8-8-27.8-23.9V12.1L334.5,11z"/>
	</g>
</g>
</svg>
